<svg xmlns="http://www.w3.org/2000/svg" xmlns:xlink="http://www.w3.org/1999/xlink" viewBox="0 0 119.53 45.43"><defs><style>.cls-1{fill:#fff;}.cls-2{fill:url(#radial-gradient);}</style><radialGradient id="radial-gradient" cx="16.97" cy="-0.4" r="32.18" gradientTransform="translate(15.37 -17.38) rotate(90) scale(1 4)" gradientUnits="userSpaceOnUse"><stop offset="0" stop-color="#460053"/><stop offset="1" stop-color="#f31a75"/></radialGradient></defs><title>Nuevo logo</title><g id="Layer_2" data-name="Layer 2"><path class="cls-1" d="M42.1,17a7.75,7.75,0,0,1,2.84-2,8.7,8.7,0,0,1,6.55,0,7.77,7.77,0,0,1,2.87,2L56,18.53l-3.2,3.24-1.63-1.58a4.13,4.13,0,0,0-5.85,0,3.55,3.55,0,0,0-.9,1.28A3.85,3.85,0,0,0,44.1,23a4.49,4.49,0,0,0,.3,1.63A3.94,3.94,0,0,0,45.3,26a4.12,4.12,0,0,0,4.49.94A3.78,3.78,0,0,0,51.11,26l1.67-1.62L56,27.63l-1.62,1.62a8.73,8.73,0,0,1-6.11,2.61,8.44,8.44,0,0,1-3.31-.67,8.31,8.31,0,0,1-2.84-1.94,7.86,7.86,0,0,1-1.9-2.82,9,9,0,0,1,0-6.58A8.07,8.07,0,0,1,42.1,17Z"/><path class="cls-1" d="M57.9,7.08h4.57V31.81H57.9Z"/><path class="cls-1" d="M81.82,14.77v8.5a8.17,8.17,0,0,1-.69,3.35,8.44,8.44,0,0,1-1.86,2.72,9,9,0,0,1-2.73,1.83,8.28,8.28,0,0,1-6.62,0,8.69,8.69,0,0,1-2.71-1.83,8.52,8.52,0,0,1-2.48-6.07v-8.5h4.48v8.5a4,4,0,0,0,1.16,2.9,3.81,3.81,0,0,0,2.86,1.2,3.86,3.86,0,0,0,2.88-1.2,4,4,0,0,0,1.18-2.9v-8.5Z"/><path class="cls-1" d="M92.58,14.26a8.11,8.11,0,0,1,3.31.68,8.3,8.3,0,0,1,2.71,1.88,9.26,9.26,0,0,1,1.84,2.8,9,9,0,0,1,0,6.87,9.14,9.14,0,0,1-1.84,2.8,8.67,8.67,0,0,1-2.71,1.9,8.07,8.07,0,0,1-6.62,0,8.71,8.71,0,0,1-2.72-1.9,8.94,8.94,0,0,1-1.83-2.8A8.55,8.55,0,0,1,84,23.06V7.72h4.49v6.54Zm0,12.94a4,4,0,0,0,1.56-.32A4,4,0,0,0,95.42,26a4.28,4.28,0,0,0,.85-1.32,4,4,0,0,0,.32-1.62,4.09,4.09,0,0,0-.32-1.63,4.28,4.28,0,0,0-.85-1.32,4.11,4.11,0,0,0-1.28-.88,4,4,0,0,0-1.56-.32H88.52v4.15A4.06,4.06,0,0,0,89.67,26,3.87,3.87,0,0,0,92.58,27.2Z"/><path class="cls-1" d="M119.53,14.21v15.3a8.8,8.8,0,0,1-.68,3.44A9.21,9.21,0,0,1,117,35.74a8.67,8.67,0,0,1-2.71,1.9,8,8,0,0,1-3.31.71h-2.31V33.69H111a3.91,3.91,0,0,0,2.37-.74,3.8,3.8,0,0,0,1.38-2,9.07,9.07,0,0,1-1.81.66,8,8,0,0,1-1.94.24,7.9,7.9,0,0,1-3.31-.71,8.71,8.71,0,0,1-2.72-1.9,9.05,9.05,0,0,1-1.83-2.8,8.59,8.59,0,0,1-.69-3.44v-8.8h4.49V23a4.15,4.15,0,0,0,1.15,3A3.85,3.85,0,0,0,111,27.2a3.91,3.91,0,0,0,1.55-.32,3.66,3.66,0,0,0,1.29-.9,4.5,4.5,0,0,0,.85-1.34A4.3,4.3,0,0,0,115,23v-8.8Z"/><path class="cls-2" d="M28.44,5.49A16.24,16.24,0,0,0,16.91.68,16,16,0,0,0,15,.8C12.81.8,8.52,2.36,5.39,5.49A16.36,16.36,0,0,0,3.45,26.1c2.7,4.1,5,3.88,5.46,3.52a3,3,0,0,1,3.74.16,3.07,3.07,0,0,1,1.09,2.29l6.4.65a3.09,3.09,0,0,1,1-2.94,3.12,3.12,0,0,1,3.75-.16,9,9,0,0,1,.87.95,2.84,2.84,0,0,0,.54.5,2.53,2.53,0,0,0,3.79-2.89,2.36,2.36,0,0,1,.26-2.08A16.28,16.28,0,0,0,28.44,5.49Z"/><path class="cls-1" d="M28.92,5a16.83,16.83,0,0,0-12-5c-.42,0-.83,0-1.24.05a17.6,17.6,0,0,0-2.53.37h0a16.88,16.88,0,0,0-13.08,15,17.41,17.41,0,0,0,2.82,11,11,11,0,0,0,2.94,3.17,4.27,4.27,0,0,0,2.37.84,1.92,1.92,0,0,0,1.13-.32,2.23,2.23,0,0,1,1.33-.43,2.46,2.46,0,0,1,1.56.56A2.4,2.4,0,0,1,13,31.53a.75.75,0,0,1,0,.21c0,.3,0,1.13-.05,1.53a3.77,3.77,0,0,0,2.7,3.86,5,5,0,0,0,1.26.21,3.83,3.83,0,0,0,1.26-.21,4,4,0,0,0,2.73-3.6v0c0-.25,0-.51-.08-.77,0-.1,0-.19,0-.28a2.41,2.41,0,0,1,.83-2.16,2.33,2.33,0,0,1,1.51-.54,2.46,2.46,0,0,1,1.4.43,5.06,5.06,0,0,1,.46.5l.29.33a3.4,3.4,0,0,0,.67.63,3.27,3.27,0,0,0,1.77.52A3.2,3.2,0,0,0,30.77,28a1.72,1.72,0,0,1,.17-1.49A17,17,0,0,0,28.92,5ZM30.38,26.1a2.36,2.36,0,0,0-.26,2.08,2.53,2.53,0,0,1-2.4,3.31,2.49,2.49,0,0,1-1.39-.42,2.84,2.84,0,0,1-.54-.5,9,9,0,0,0-.87-.95,3.22,3.22,0,0,0-1.79-.55,3,3,0,0,0-3,2.8h0a2.89,2.89,0,0,1,0,.29c0,.24-.25.46-.36.36l-.32-.31a5.11,5.11,0,0,1-.48-.61,7.94,7.94,0,0,1-1.08-2.33,6.23,6.23,0,0,1-.14-1.14c0-.15,0-.38,0-.55v-.1a7.41,7.41,0,0,0,3.3-1.59,5.28,5.28,0,0,1,.93-.6c.14-.07.3-.12.45-.2h0a3.6,3.6,0,0,1,.45-.16,8.27,8.27,0,0,1,1.42-.25l.1,0h.12c.23,0,.48,0,.7.06a2.73,2.73,0,0,1,.64.16c.88.23,1.57,1.16,2.48,1.2a1.51,1.51,0,0,0,1.56-1.31,1.55,1.55,0,0,0-1.3-1.83c-.91-.14-1.73.67-2.64.7a2.84,2.84,0,0,1-.65,0,2.48,2.48,0,0,1-.58-.15,6.15,6.15,0,0,1-1.17-.66s0,0,0,0c-.72-1,.22-2,1-2.73v0a6.05,6.05,0,0,1,.55-.32,5.09,5.09,0,0,1,1.31-.51l.36,0H27c.27,0,.42,0,.78,0a4.07,4.07,0,0,0,1.38-.23,1.8,1.8,0,0,0,.34-.17,1.64,1.64,0,1,0-1.87-2.7,3.54,3.54,0,0,0-1,.93l-.46.58c-.1.12-.15.2-.24.3a3.13,3.13,0,0,1-.25.26,4.22,4.22,0,0,1-1.19.62,3,3,0,0,1-.65.19,1.14,1.14,0,0,1-.37,0,2.45,2.45,0,0,0-.38,0H23a1.55,1.55,0,0,1-.83-.48,1.92,1.92,0,0,1-.23-.42.76.76,0,0,1-.06-.36,1.09,1.09,0,0,1,0-.26,3.64,3.64,0,0,1,.46-1.24,5.15,5.15,0,0,1,.81-1,9.12,9.12,0,0,1,1.06-.79l.57-.38c.2-.11.47-.19.66-.3a2.29,2.29,0,0,0,1-.82,2,2,0,0,0-3.18-2.32,2.2,2.2,0,0,0-.46,1.23c0,.22-.05.5-.09.72s-.12.45-.18.66a10.41,10.41,0,0,1-.44,1.26,5,5,0,0,1-.69,1.07,3.64,3.64,0,0,1-.69.61s0,0,0,0a.46.46,0,0,1-.07.07,2.1,2.1,0,0,1-.24.14h0a1.21,1.21,0,0,1-.81.09,2.17,2.17,0,0,1-.3-.08.15.15,0,0,1-.09-.05L19,16.14c-.18-.19-.37-.39-.54-.59a4.25,4.25,0,0,1-.41-.63,12,12,0,0,1-.63-1.3A10.88,10.88,0,0,1,17,12.23a5.7,5.7,0,0,1-.1-1,6.42,6.42,0,0,1,.31-2.05,1.46,1.46,0,0,0,.09-.48A1.87,1.87,0,0,0,16.3,7a1.85,1.85,0,0,0-2.6,1.12A1.81,1.81,0,0,0,14,9.8a10.24,10.24,0,0,1,1,1.54,9.91,9.91,0,0,1,.52,1.24A9.37,9.37,0,0,1,15.83,14a10.14,10.14,0,0,1,0,1.46,1,1,0,0,1,0,.32c-.7,2.83-1.88,3.67-4.7,2.43h0l-.07,0c-.16-.11-.3-.18-.46-.31a3.65,3.65,0,0,1-.44-.44L9.73,17c-.16-.18-.27-.33-.42-.51S9,16.07,8.9,16A3,3,0,0,0,8,15.09,1.53,1.53,0,0,0,6,15.56a1.57,1.57,0,0,0,.3,2.16,2.81,2.81,0,0,0,1.23.5c.15.05.45.1.62.15s.41.09.64.16l.6.18a2.56,2.56,0,0,1,1.13.55q.24.19.48.42c.27.28.52.58.79.87a8.18,8.18,0,0,1,.47,1c.09.24.19.48.27.73,0,.09.06.26.09.35a3.66,3.66,0,0,0,.18.46.08.08,0,0,0,0,0A6.9,6.9,0,0,0,15.45,27a.91.91,0,0,1,.13.08s0,0,0,0a1.38,1.38,0,0,1,0,.29c0,.17,0,.41,0,.57,0,.41,0,.73,0,1.13a3.87,3.87,0,0,1-.79,2.14,2.41,2.41,0,0,1-.54.51l-.36.25c-.06,0-.11.06-.31-.75a3,3,0,0,0-.95-1.44,3.12,3.12,0,0,0-2-.73,2.9,2.9,0,0,0-1.74.57,1.21,1.21,0,0,1-.72.18c-1,0-2.74-.67-4.74-3.7a16.3,16.3,0,0,1,9.72-25l.13,0h.06a15.53,15.53,0,0,1,1.7-.29h.15l.17,0c.51-.05,1-.07,1.53-.07A16.28,16.28,0,0,1,30.38,26.1Z"/><path class="cls-1" d="M22.69,32.24a1.55,1.55,0,1,0,2.18,0A1.56,1.56,0,0,0,22.69,32.24Z"/><path class="cls-1" d="M11.14,38.24a1.4,1.4,0,1,0,0,2A1.39,1.39,0,0,0,11.14,38.24Z"/><path class="cls-1" d="M10.55,44a.84.84,0,1,0,1.19,1.19.86.86,0,0,0,0-1.19A.84.84,0,0,0,10.55,44Z"/><path class="cls-1" d="M3.24,32.69a.84.84,0,1,0,1.19,0A.84.84,0,0,0,3.24,32.69Z"/><path class="cls-1" d="M19.5,37.59a.86.86,0,0,0,0,1.19.84.84,0,1,0,0-1.19Z"/><path class="cls-1" d="M8.35,32.14a2,2,0,1,0,2.78,0A1.95,1.95,0,0,0,8.35,32.14Z"/></g></svg>