<svg xmlns="http://www.w3.org/2000/svg" viewBox="0 0 19.56 20"><defs><style>.cls-1{fill:#460053;}</style></defs><title>calendar</title><g id="Layer_2" data-name="Layer 2"><path class="cls-1" d="M7.07,11a.46.46,0,0,0-.46-.45H5a.46.46,0,0,0-.46.45v1.59a.46.46,0,0,0,.46.45H6.61a.46.46,0,0,0,.46-.45V11Z"/><path class="cls-1" d="M11,11a.45.45,0,0,0-.45-.45H9a.46.46,0,0,0-.46.45v1.59a.46.46,0,0,0,.46.45h1.58a.45.45,0,0,0,.45-.45Z"/><path class="cls-1" d="M15,11a.45.45,0,0,0-.45-.45H13a.45.45,0,0,0-.46.45v1.59a.45.45,0,0,0,.46.45h1.58a.45.45,0,0,0,.45-.45Z"/><path class="cls-1" d="M7.07,15a.46.46,0,0,0-.46-.45H5a.46.46,0,0,0-.46.45v1.59A.46.46,0,0,0,5,17H6.61a.46.46,0,0,0,.46-.45V15Z"/><path class="cls-1" d="M11,15a.45.45,0,0,0-.45-.45H9a.46.46,0,0,0-.46.45v1.59A.46.46,0,0,0,9,17h1.58a.45.45,0,0,0,.45-.45Z"/><path class="cls-1" d="M15,15a.45.45,0,0,0-.45-.45H13a.45.45,0,0,0-.46.45v1.59A.45.45,0,0,0,13,17h1.58a.45.45,0,0,0,.45-.45V15Z"/><path class="cls-1" d="M17.82,2.23V4.65a2,2,0,0,1-2,2H14.59a2,2,0,0,1-2-2V2.22H7V4.65a2,2,0,0,1-2,2H3.72a2,2,0,0,1-2-2V2.23A1.8,1.8,0,0,0,0,4V18.2A1.8,1.8,0,0,0,1.79,20h16a1.81,1.81,0,0,0,1.8-1.8V4A1.8,1.8,0,0,0,17.82,2.23Zm-.58,15.08a.78.78,0,0,1-.78.78H3.06a.77.77,0,0,1-.77-.78V10a.77.77,0,0,1,.77-.78h13.4a.78.78,0,0,1,.78.78v7.32Z"/><path class="cls-1" d="M3.72,5.32H5a.67.67,0,0,0,.68-.67v-4A.67.67,0,0,0,5,0H3.72A.67.67,0,0,0,3,.68v4A.67.67,0,0,0,3.72,5.32Z"/><path class="cls-1" d="M14.57,5.32h1.24a.67.67,0,0,0,.67-.67v-4A.67.67,0,0,0,15.81,0H14.57a.68.68,0,0,0-.68.68v4A.68.68,0,0,0,14.57,5.32Z"/></g></svg>