<svg id="Layer_1" data-name="Layer 1" xmlns="http://www.w3.org/2000/svg" viewBox="0 0 11.47 17.4"><defs><style>.cls-1{fill:#2e4da0;}</style></defs><title>candado</title><path class="cls-1" d="M10.21,7.11H3.37V5.56c0-2,1.14-3.61,2.55-3.7,2-.11,2.74,1.56,2.74,3.61l1.72,0V3.59c0-2-2-3.59-4.46-3.59S1.45,1.61,1.45,3.59V7.11H1.26A1.23,1.23,0,0,0,0,8.31V16.2a1.23,1.23,0,0,0,1.26,1.2h9a1.24,1.24,0,0,0,1.26-1.2V8.31A1.24,1.24,0,0,0,10.21,7.11ZM6.59,12.34v3H5.25v-3A1.47,1.47,0,0,1,4.41,11a1.51,1.51,0,0,1,3,0A1.48,1.48,0,0,1,6.59,12.34Z"/></svg>