<svg id="Layer_1" data-name="Layer 1" xmlns="http://www.w3.org/2000/svg" viewBox="0 0 11.32 19.97"><defs><style>.cls-1{fill:#2e4da0;}</style></defs><title>Celular</title><path class="cls-1" d="M9.85,0H1.47A1.47,1.47,0,0,0,0,1.47v17A1.47,1.47,0,0,0,1.47,20H9.85a1.47,1.47,0,0,0,1.47-1.46v-17A1.47,1.47,0,0,0,9.85,0ZM4.33,1H7a.33.33,0,0,1,.33.33A.33.33,0,0,1,7,1.66H4.33A.33.33,0,0,1,4,1.33.34.34,0,0,1,4.33,1ZM5.66,18.57a.93.93,0,0,1,0-1.86.93.93,0,0,1,0,1.86ZM9.9,15.31H1.42A.38.38,0,0,1,1,14.94V3a.38.38,0,0,1,.38-.38H9.9a.38.38,0,0,1,.38.38v11.9A.38.38,0,0,1,9.9,15.31Z"/></svg>