<svg xmlns="http://www.w3.org/2000/svg" viewBox="0 0 288.75 410.5"><defs><style>.cls-1{fill:#fff;}</style></defs><title>Cluby - blanco</title><g id="Layer_2" data-name="Layer 2"><path class="cls-1" d="M186.5,301a12.15,12.15,0,1,0,17.17,0A12.17,12.17,0,0,0,186.5,301Z"/><path class="cls-1" d="M98.8,353.86a11,11,0,1,0,0,15.63A11,11,0,0,0,98.8,353.86Z"/><path class="cls-1" d="M94.12,399.18a6.63,6.63,0,1,0,9.36,0A6.63,6.63,0,0,0,94.12,399.18Z"/><path class="cls-1" d="M36.62,310.13a6.63,6.63,0,1,0,9.36,0A6.63,6.63,0,0,0,36.62,310.13Z"/><path class="cls-1" d="M164.64,348.74a6.63,6.63,0,1,0,9.36,0A6.63,6.63,0,0,0,164.64,348.74Z"/><path class="cls-1" d="M80.84,300.11a15.46,15.46,0,1,0,21.85,0A15.48,15.48,0,0,0,80.84,300.11Z"/><path class="cls-1" d="M186.72,250.15l.07,0Z"/><path class="cls-1" d="M189.05,76.36a13.72,13.72,0,0,0,9.74-4.1,14.54,14.54,0,0,0,2.93-4.55c.14-.34.26-.68.37-1s.17-.56.24-.84h0a14.17,14.17,0,0,0,.49-3.7,14.41,14.41,0,0,0-1.1-5.57A14.65,14.65,0,0,0,198.79,52a13.61,13.61,0,0,0-9.74-4.1H175.13V62.13a14,14,0,0,0,4,10.13A13.25,13.25,0,0,0,189.05,76.36Z"/><path class="cls-1" d="M281.49,24.5H262.67a4.36,4.36,0,0,0-4.36,4.36V62.75a.08.08,0,0,1,0,0,6.24,6.24,0,0,1-12.46.12,1,1,0,0,1,0-.17V28.86a4.36,4.36,0,0,0-4.35-4.36H222.88a7.26,7.26,0,0,0-7.26,7.27v4.64l-.69-.74a36.3,36.3,0,0,0-11.61-8.06,35.25,35.25,0,0,0-14.27-3h-6.66V9.47a7.27,7.27,0,0,0-7.26-7.27H159.74a7.27,7.27,0,0,0-7.26,7.27V22.19a4.21,4.21,0,0,1-4.21,4.22h-15A4.36,4.36,0,0,0,129,30.77V62.52a6.26,6.26,0,1,1-12.51,0V30.78a4.37,4.37,0,0,0-4.36-4.37H97.24A4.21,4.21,0,0,1,93,22.2V7.27A7.26,7.26,0,0,0,85.77,0H70.11a7.26,7.26,0,0,0-7.26,7.27V35.75a34.19,34.19,0,0,0-12-8.1,37.09,37.09,0,0,0-27.86,0A34.15,34.15,0,0,0,10.69,36.1,35.5,35.5,0,0,0,2.6,48.54a38.35,38.35,0,0,0,0,27.84,34.38,34.38,0,0,0,8.14,12.17A36,36,0,0,0,22.88,96.8,36.76,36.76,0,0,0,37,99.62a35,35,0,0,0,6.11-.55,131.94,131.94,0,0,0-31.52,75.17,137.49,137.49,0,0,0,22.16,86.9C41.18,272.42,49,280.85,56.94,286.2s14.58,6.53,18.65,6.53a14.87,14.87,0,0,0,8.86-2.47,17.36,17.36,0,0,1,10.49-3.42,19,19,0,0,1,12.25,4.47,18.54,18.54,0,0,1,6.08,9.63,6.14,6.14,0,0,1,.18,1.71c0,.91-.06,2.44-.12,4.16h0c-.07,2.1-.16,4.46-.23,6.31,0,.23,0,.46,0,.67v.13c0,.26,0,.51,0,.74-.49,14.54,8.46,27.28,21.25,30.47a41,41,0,0,0,9.93,1.61,31.41,31.41,0,0,0,31.37-30l0-.12c-.14-1.17-.24-2.34-.35-3.51,0,.32-.11-1.24-.27-2.63a13.52,13.52,0,0,1-.19-2.2c-.07-.48-.11-.95-.14-1.42,0-.13,0-.25,0-.37,0-.38,0-.76,0-1.13v-.3a20.37,20.37,0,0,1,.33-2.93,19,19,0,0,1,6.33-10.82,18.5,18.5,0,0,1,12-4.31,19.41,19.41,0,0,1,11,3.4,43.17,43.17,0,0,1,3.62,4c.74.87,1.5,1.76,2.27,2.62a27.26,27.26,0,0,0,5.3,4.91,25.27,25.27,0,0,0,37.91-29,13.36,13.36,0,0,1,1.37-11.72,133.82,133.82,0,0,0,5.93-140.3,34.92,34.92,0,0,0,5.93-2,37.39,37.39,0,0,0,11.54-8.11A38.74,38.74,0,0,0,285.82,99a37.29,37.29,0,0,0,2.93-14.66V31.77A7.26,7.26,0,0,0,281.49,24.5ZM159.74,53.39V9.47h15.39V31.92h13.92a28,28,0,0,1,11.35,2.34,28.93,28.93,0,0,1,9.3,6.46,31.41,31.41,0,0,1,6.3,9.61,30.8,30.8,0,0,1,.13,23.28c0,.11-.08.22-.13.33a31.29,31.29,0,0,1-6.3,9.61,29.77,29.77,0,0,1-9.3,6.53,27.85,27.85,0,0,1-22.71,0,29.65,29.65,0,0,1-9.3-6.53,31.29,31.29,0,0,1-6.3-9.61,29.65,29.65,0,0,1-2.35-11.81ZM93.53,62.5V33.68h15.38V62.87a13.82,13.82,0,0,0,4,10A13,13,0,0,0,122.68,77a13.31,13.31,0,0,0,9.89-4.11,13.68,13.68,0,0,0,4-10V33.68h15.53V62.87a28.4,28.4,0,0,1-2.34,11.51,29.58,29.58,0,0,1-6.37,9.32A31.27,31.27,0,0,1,134,90a28.72,28.72,0,0,1-22.71,0A30.22,30.22,0,0,1,102,83.7a29.31,29.31,0,0,1-8.49-20.83ZM70.11,75.07V7.27H85.77V92.21H70.11ZM37,92.35a29.33,29.33,0,0,1-11.35-2.27,28.62,28.62,0,0,1-9.74-6.67,27.11,27.11,0,0,1-6.52-9.69,31,31,0,0,1,0-22.59,28.16,28.16,0,0,1,6.52-10,27,27,0,0,1,9.74-6.75,29.84,29.84,0,0,1,22.49,0A27,27,0,0,1,58,41.16l5.56,5.42-11,11.15L47,52.31a14.15,14.15,0,0,0-20.08.14,12.43,12.43,0,0,0-3.07,4.4,13.32,13.32,0,0,0-1,5.14,15.09,15.09,0,0,0,1,5.57,13.57,13.57,0,0,0,3.07,4.7A13.84,13.84,0,0,0,37,76.51a13.61,13.61,0,0,0,5.28-1,13,13,0,0,0,4.54-3.22l5.72-5.58,11,11.15L58,83.41a28.55,28.55,0,0,1-9.82,6.67A29.16,29.16,0,0,1,37,92.35ZM243.53,200.41a10.72,10.72,0,0,1-2.66,1.34A30.9,30.9,0,0,1,230,203.54c-2.85,0-4,.11-6.09.13-1.41,0-1.95,0-3,.06a25.73,25.73,0,0,0-2.86.32c-3.76.7-6.92,2.32-10.25,4-1.51.78-2.92,1.58-4.34,2.5l0,.12c-6,5.51-13.36,13.31-7.75,21.56.05.08.12.09.16.12a44.06,44.06,0,0,0,9.16,5.23,17.5,17.5,0,0,0,4.55,1.19,19.62,19.62,0,0,0,5.13-.11c7.19-.24,13.63-6.63,20.81-5.53s11.33,7.59,10.21,14.45c-1,6.11-5.85,10.54-12.24,10.31-7.23-.26-12.61-7.62-19.54-9.46a23.23,23.23,0,0,0-5-1.26c-1.78-.21-3.72-.37-5.51-.47-.35,0-.65,0-1,0s-.51.06-.79.08a69.83,69.83,0,0,0-11.22,2,25.67,25.67,0,0,0-3.52,1.24l-.23.1c-1.18.59-2.45,1-3.51,1.55a40.5,40.5,0,0,0-7.4,4.74c-7.9,6.17-16,10.81-25.95,12.52,0,.29,0,.5,0,.83,0,1.32.16,3.11.28,4.34a58.51,58.51,0,0,0,1.14,9c1.57,6.55,4.79,12.42,8.46,18.32a33.5,33.5,0,0,0,3.86,4.79c.65.7,1.62,1.65,2.47,2.44a31,31,0,0,0,3.92,2l.36,1.27,0,.12.13-.09c.07.65.13,1.32.19,2,.09,1,.19,2,.31,3a26.86,26.86,0,0,1-26.8,25.22,37.24,37.24,0,0,1-8.83-1.48c-10.73-2.67-18.21-13.56-17.8-25.88,0-.91.08-2.1.12-3.4,0-1,.08-2,.11-3l.15.07a3.27,3.27,0,0,1,0-.44,2.93,2.93,0,0,1,.05-.73h0c1.32-1.61,2.42-2.86,2.52-2.92,1-.62,2.15-1.39,2.89-1.94a21.52,21.52,0,0,0,4.24-4A31.36,31.36,0,0,0,134,281.6c.23-3.16,0-5.74,0-8.94,0-1.21,0-3.16,0-4.45a9.73,9.73,0,0,0-.08-2.3.69.69,0,0,0-.14-.4c-.29-.24-.78-.44-1.07-.65-11.47-8.33-16.22-17.05-20.69-30.21l-.11-.3a33.68,33.68,0,0,1-1.38-3.58c-.23-.75-.5-2-.74-2.8-.61-2-1.38-3.86-2.12-5.73a59.85,59.85,0,0,0-3.68-7.81c-2.07-2.27-4.06-4.67-6.24-6.83A42,42,0,0,0,94,204.3a22.64,22.64,0,0,0-4.09-2.74,29.5,29.5,0,0,0-4.75-1.65l-4.74-1.43c-1.81-.53-3.24-.79-5-1.24-1.35-.34-3.67-.81-4.91-1.14-3.53-.95-7-1.61-9.69-4-5.12-4.58-6.34-11.33-2.3-17,3.73-5.2,9.66-6.14,15.33-3.67,3.1,1.34,5.1,4.11,7.38,6.73.85,1,2.3,2.87,3.2,3.95,1.2,1.44,2.07,2.64,3.35,4l3.38,3.67a34,34,0,0,0,3.47,3.51c1.24,1,2.36,1.56,3.59,2.37a6.91,6.91,0,0,0,.61.33l0,0s0,0,0,0c22.24,9.73,31.51,3.13,37-19.15a8.47,8.47,0,0,0,.26-2.55,81.35,81.35,0,0,0-.32-11.49,73.82,73.82,0,0,0-2-11.29,74.59,74.59,0,0,0-4.07-9.78c-1.73-3.71-5.2-8.32-8-12.1s-4.54-8.52-2.72-13.45c3.24-8.77,11.57-12.8,20.51-8.87,5.48,2.42,7.94,8,8.07,13.79a12,12,0,0,1-.7,3.8,51.32,51.32,0,0,0-2.44,16.15,46.61,46.61,0,0,0,.81,7.76,79.21,79.21,0,0,0,3.39,10.87,97.44,97.44,0,0,0,4.94,10.3,27.22,27.22,0,0,0,3.23,4.94c1.31,1.57,2.79,3.18,4.26,4.68a7.74,7.74,0,0,0,1.2,1,2.42,2.42,0,0,0,.74.37c.79.24,1.41.44,2.37.66a9.52,9.52,0,0,0,6.43-.8s-.18.1.07,0,1.5-.82,1.93-1.11c.25-.17.37-.41.53-.52s.12.08.24,0a26.29,26.29,0,0,0,5.41-4.79,41.93,41.93,0,0,0,5.5-8.42,77.56,77.56,0,0,0,3.4-9.94c.52-1.69,1-3.43,1.41-5.19s.4-4,.7-5.68c.61-3.41,1.25-7.24,3.66-9.72,6.19-6.41,14.73-7.63,21.75-1.92,6.47,5.27,7.07,13.12,3.25,20.24-1.64,3.07-5.07,4.83-8.13,6.45-1.54.82-3.62,1.51-5.18,2.4s-3.05,1.91-4.5,2.93a73.28,73.28,0,0,0-8.4,6.26,39.86,39.86,0,0,0-6.33,7.83,27.29,27.29,0,0,0-3.61,9.77,8.85,8.85,0,0,0-.29,2,7.32,7.32,0,0,0,.5,2.89,14.09,14.09,0,0,0,1.78,3.29,12.55,12.55,0,0,0,6.6,3.77,6.67,6.67,0,0,0,1.35.08,23.21,23.21,0,0,1,3,.33,9.23,9.23,0,0,0,2.88,0,23.87,23.87,0,0,0,5.12-1.54c3.36-1.32,6.53-2.56,9.36-4.87a20.64,20.64,0,0,0,2-2.07c.69-.75,1.14-1.42,1.88-2.35,1.11-1.38,2.5-3.12,3.67-4.6,2.08-2.74,4.55-5.6,7.53-7.29,6-3.41,12.95-3.3,17.44,2.29C251.48,187.93,249.55,195.41,243.53,200.41Zm38-116.12a29.81,29.81,0,0,1-2.35,11.8,31.41,31.41,0,0,1-6.3,9.61,29.77,29.77,0,0,1-9.3,6.53,26.89,26.89,0,0,1-6.88,2.07l-.37,0c-.31.05-.63.09-.94.12l-.5,0-.89.07-.44,0c-.44,0-.89,0-1.34,0h-7.91v-16h7.91a13.26,13.26,0,0,0,8.14-2.57,13.12,13.12,0,0,0,4.76-6.82,29.69,29.69,0,0,1-6.23,2.28,27.85,27.85,0,0,1-6.67.8,27.1,27.1,0,0,1-11.35-2.42,30,30,0,0,1-9.31-6.52,31.9,31.9,0,0,1-6.3-9.61A29.88,29.88,0,0,1,222.88,62V31.77h15.38V62a14.25,14.25,0,0,0,4,10.19,13.13,13.13,0,0,0,10,4.18,13.31,13.31,0,0,0,5.35-1.1,12.82,12.82,0,0,0,4.4-3.08,15.68,15.68,0,0,0,2.93-4.62A14.37,14.37,0,0,0,266,62V31.77h15.53Z"/></g></svg>