<svg id="Layer_1" data-name="Layer 1" xmlns="http://www.w3.org/2000/svg" viewBox="0 0 140.85 200"><defs><style>.cls-1{fill:#2e4da0;}</style></defs><title>logo azul</title><path class="cls-1" d="M91,146.63a5.92,5.92,0,1,0,8.37,0A5.92,5.92,0,0,0,91,146.63Z"/><path class="cls-1" d="M48.19,172.4a5.38,5.38,0,1,0,0,7.62A5.38,5.38,0,0,0,48.19,172.4Z"/><path class="cls-1" d="M45.91,194.49a3.23,3.23,0,1,0,4.57,0A3.22,3.22,0,0,0,45.91,194.49Z"/><path class="cls-1" d="M17.86,151.1a3.23,3.23,0,1,0,4.57,0A3.24,3.24,0,0,0,17.86,151.1Z"/><path class="cls-1" d="M80.31,169.91a3.23,3.23,0,1,0,4.57,0A3.24,3.24,0,0,0,80.31,169.91Z"/><path class="cls-1" d="M39.43,146.22a7.54,7.54,0,1,0,10.66,0A7.54,7.54,0,0,0,39.43,146.22Z"/><path class="cls-1" d="M91.08,121.88l0,0Z"/><path class="cls-1" d="M92.22,37.21a6.66,6.66,0,0,0,4.75-2A7.08,7.08,0,0,0,98.4,33a5,5,0,0,0,.18-.5l.12-.41h0a7.25,7.25,0,0,0,.24-1.81,6.9,6.9,0,0,0-.54-2.71A7.25,7.25,0,0,0,97,25.34a6.41,6.41,0,0,0-2.14-1.46,6.56,6.56,0,0,0-2.61-.54H85.43v6.93a6.8,6.8,0,0,0,1.93,4.93A6.43,6.43,0,0,0,92.22,37.21Z"/><path class="cls-1" d="M137.31,11.94h-9.18A2.12,2.12,0,0,0,126,14.06V30.57s0,0,0,0a3,3,0,0,1-6.08,0,.19.19,0,0,1,0-.08V14.06a2.12,2.12,0,0,0-2.12-2.12h-9.06a3.54,3.54,0,0,0-3.54,3.54v2.26l-.34-.36a17.7,17.7,0,0,0-5.66-3.93,17.22,17.22,0,0,0-7-1.44H89V4.61a3.55,3.55,0,0,0-3.54-3.54H77.92a3.55,3.55,0,0,0-3.54,3.54v6.2a2.05,2.05,0,0,1-2,2.06H65A2.12,2.12,0,0,0,62.91,15V30.46a3,3,0,0,1-6.1,0V15a2.13,2.13,0,0,0-2.13-2.12H47.44a2.05,2.05,0,0,1-2.06-2V3.54A3.54,3.54,0,0,0,41.84,0H34.2a3.54,3.54,0,0,0-3.54,3.54V17.42a16.67,16.67,0,0,0-5.88-4,18.06,18.06,0,0,0-13.58,0,16.65,16.65,0,0,0-6,4.11,17.47,17.47,0,0,0-3.94,6.06,18.66,18.66,0,0,0,0,13.56,16.82,16.82,0,0,0,4,5.93,17.49,17.49,0,0,0,5.91,4A17.48,17.48,0,0,0,21,48.27,64.26,64.26,0,0,0,5.65,84.89a67,67,0,0,0,10.81,42.34c3.63,5.5,7.43,9.6,11.31,12.21a16.47,16.47,0,0,0,9.1,3.18,7.26,7.26,0,0,0,4.33-1.2,8.43,8.43,0,0,1,5.11-1.67,9.28,9.28,0,0,1,6,2.18,9.1,9.1,0,0,1,3,4.69,2.93,2.93,0,0,1,.08.84c0,.44,0,1.19-.06,2h0c0,1-.07,2.17-.11,3.08v.38c0,.13,0,.26,0,.37-.24,7.08,4.12,13.29,10.36,14.84a20.06,20.06,0,0,0,4.85.79,15.34,15.34,0,0,0,15.3-14.62s0,0,0-.06c-.07-.57-.12-1.14-.18-1.71,0,.16,0-.6-.13-1.28a6.44,6.44,0,0,1-.09-1.07c0-.23,0-.46-.07-.69v-.18c0-.19,0-.37,0-.56v-.14a9.78,9.78,0,0,1,.16-1.43,9.24,9.24,0,0,1,3.09-5.27,9,9,0,0,1,5.83-2.1,9.43,9.43,0,0,1,5.36,1.66,22.33,22.33,0,0,1,1.77,1.92c.36.42.73.86,1.11,1.28a13.36,13.36,0,0,0,2.58,2.39A12.32,12.32,0,0,0,123.56,133a6.49,6.49,0,0,1,.67-5.71,65.12,65.12,0,0,0,2.89-68.36,16.43,16.43,0,0,0,2.89-1A18.23,18.23,0,0,0,135.64,54a19,19,0,0,0,3.79-5.75,18.27,18.27,0,0,0,1.42-7.14V15.48A3.53,3.53,0,0,0,137.31,11.94ZM77.92,26V4.61h7.51V15.55h6.79a13.7,13.7,0,0,1,5.54,1.14,14.13,14.13,0,0,1,4.53,3.15,15.17,15.17,0,0,1,3.08,4.68,15.06,15.06,0,0,1,.06,11.35l-.06.16a15.41,15.41,0,0,1-3.08,4.68,14.71,14.71,0,0,1-4.53,3.18,13.59,13.59,0,0,1-11.08,0,14.75,14.75,0,0,1-4.54-3.18A15.38,15.38,0,0,1,79.07,36a14.42,14.42,0,0,1-1.15-5.76Zm-32.3,4.44v-14h7.51V30.63a6.72,6.72,0,0,0,1.93,4.86,6.38,6.38,0,0,0,4.79,2,6.51,6.51,0,0,0,4.82-2,6.67,6.67,0,0,0,2-4.86V16.41h7.57V30.63a13.86,13.86,0,0,1-1.14,5.61A14.39,14.39,0,0,1,70,40.78a15,15,0,0,1-4.58,3.07,13.9,13.9,0,0,1-11.07,0,14.5,14.5,0,0,1-4.54-3.07,14.26,14.26,0,0,1-4.15-10.15ZM34.2,36.57v-33h7.64V44.92H34.2ZM18.05,45a14.34,14.34,0,0,1-5.54-1.11,14,14,0,0,1-4.75-3.25,13.31,13.31,0,0,1-3.18-4.72,15.09,15.09,0,0,1,0-11,13.74,13.74,0,0,1,3.18-4.86,13.34,13.34,0,0,1,4.75-3.29,14.59,14.59,0,0,1,11,0,13.22,13.22,0,0,1,4.79,3.29L31,22.7l-5.36,5.43-2.72-2.65a6.78,6.78,0,0,0-4.86-2,6.7,6.7,0,0,0-4.93,2.08,6,6,0,0,0-1.5,2.14,6.38,6.38,0,0,0-.5,2.5,7.3,7.3,0,0,0,.5,2.72,6.46,6.46,0,0,0,1.5,2.28,6.87,6.87,0,0,0,7.5,1.58,6.4,6.4,0,0,0,2.22-1.58l2.79-2.71L31,37.92l-2.72,2.72a13.9,13.9,0,0,1-4.79,3.25A14.25,14.25,0,0,1,18.05,45ZM118.79,97.64a4.74,4.74,0,0,1-1.29.65,15.08,15.08,0,0,1-5.31.88c-1.38,0-2,0-3,.06-.68,0-1,0-1.47,0a11.26,11.26,0,0,0-1.4.16,18.27,18.27,0,0,0-5,2c-.74.38-1.42.77-2.12,1.22l0,.06c-2.91,2.68-6.52,6.48-3.78,10.5,0,0,.06,0,.07.06a21.9,21.9,0,0,0,4.47,2.55,8.74,8.74,0,0,0,2.23.58,9.55,9.55,0,0,0,2.5-.06c3.5-.11,6.64-3.23,10.15-2.69a6,6,0,0,1,5,7,5.77,5.77,0,0,1-6,5c-3.53-.12-6.16-3.71-9.54-4.61a11.41,11.41,0,0,0-2.45-.61c-.86-.1-1.81-.18-2.68-.23h-.47l-.39,0a35,35,0,0,0-5.47,1,12.92,12.92,0,0,0-1.72.61l-.11,0c-.57.29-1.19.5-1.71.75a20.52,20.52,0,0,0-3.61,2.31c-3.85,3-7.79,5.27-12.66,6.1,0,.14,0,.25,0,.4,0,.65.08,1.52.14,2.12a27.22,27.22,0,0,0,.56,4.37,30.23,30.23,0,0,0,4.12,8.93,17,17,0,0,0,1.88,2.33c.32.35.79.81,1.21,1.19a13.57,13.57,0,0,0,1.91,1l.18.62s0,0,0,.06l.06-.05c0,.32.07.64.1,1s.09,1,.15,1.47a13.09,13.09,0,0,1-13.07,12.28,18.48,18.48,0,0,1-4.31-.71c-5.23-1.31-8.89-6.61-8.68-12.62,0-.44,0-1,.06-1.65,0-.48,0-1,0-1.45l.07,0a1.48,1.48,0,0,1,0-.21,1.08,1.08,0,0,1,0-.36h0c.65-.79,1.18-1.39,1.23-1.42.47-.3,1-.68,1.41-.95a10.5,10.5,0,0,0,2.07-2,15.26,15.26,0,0,0,3.05-8.22c.12-1.54,0-2.8,0-4.36,0-.58,0-1.54,0-2.16a4.6,4.6,0,0,0,0-1.12.32.32,0,0,0-.07-.2c-.14-.11-.38-.21-.52-.32-5.59-4.06-7.91-8.3-10.09-14.71a.94.94,0,0,0-.06-.15,17.18,17.18,0,0,1-.67-1.75c-.11-.36-.24-1-.36-1.36-.3-1-.67-1.88-1-2.79a28.72,28.72,0,0,0-1.8-3.8c-1-1.11-2-2.28-3-3.34a19.89,19.89,0,0,0-1.84-1.6,11.27,11.27,0,0,0-2-1.34,14.6,14.6,0,0,0-2.31-.8l-2.32-.7c-.88-.26-1.58-.38-2.46-.6-.66-.17-1.79-.39-2.39-.56-1.73-.46-3.43-.78-4.73-2a6,6,0,0,1-1.12-8.27c1.82-2.53,4.71-3,7.47-1.79,1.52.66,2.49,2,3.61,3.28.41.47,1.12,1.4,1.56,1.93.58.7,1,1.28,1.63,2,.46.51,1.19,1.31,1.65,1.79a14.42,14.42,0,0,0,1.69,1.71c.61.48,1.15.76,1.75,1.16.11.07.24.12.3.16h0s0,0,0,0c10.85,4.74,15.37,1.52,18-9.33A3.92,3.92,0,0,0,66.35,85a40,40,0,0,0-.15-5.59,35.82,35.82,0,0,0-1-5.5,34.32,34.32,0,0,0-2-4.77,40.74,40.74,0,0,0-3.9-5.89C58,61.36,57.13,59.06,58,56.65c1.58-4.27,5.64-6.23,10-4.32,2.67,1.18,3.87,3.92,3.94,6.72a6.13,6.13,0,0,1-.34,1.85,24.82,24.82,0,0,0-1.2,7.87,23.93,23.93,0,0,0,.4,3.78,37.2,37.2,0,0,0,1.66,5.3,45.18,45.18,0,0,0,2.4,5,13.33,13.33,0,0,0,1.58,2.41c.64.77,1.36,1.55,2.08,2.28a3.65,3.65,0,0,0,.58.51,1.33,1.33,0,0,0,.36.18c.39.11.69.22,1.16.32a4.62,4.62,0,0,0,3.13-.39s-.08,0,0,0,.73-.4.94-.54.18-.2.26-.26.06,0,.11,0a12.51,12.51,0,0,0,2.64-2.33,20.35,20.35,0,0,0,2.69-4.11,37.81,37.81,0,0,0,1.66-4.84c.25-.82.5-1.67.68-2.52s.2-1.93.35-2.77c.29-1.66.61-3.53,1.78-4.74,3-3.12,7.19-3.72,10.61-.94,3.16,2.58,3.45,6.4,1.59,9.87-.8,1.49-2.48,2.35-4,3.14-.75.4-1.77.73-2.53,1.17s-1.49.93-2.19,1.42a34.4,34.4,0,0,0-4.1,3.06,19.6,19.6,0,0,0-3.09,3.81,13.53,13.53,0,0,0-1.76,4.76,4.54,4.54,0,0,0-.14,1,3.49,3.49,0,0,0,.24,1.41,7.16,7.16,0,0,0,.87,1.6,6.12,6.12,0,0,0,3.22,1.84,3.6,3.6,0,0,0,.66,0,10.31,10.31,0,0,1,1.48.16,4.43,4.43,0,0,0,1.41,0,11.74,11.74,0,0,0,2.49-.75,16,16,0,0,0,4.57-2.37,9.31,9.31,0,0,0,1-1c.34-.36.56-.69.92-1.14L108,90.84a13.12,13.12,0,0,1,3.68-3.56c2.93-1.66,6.31-1.6,8.5,1.12C122.67,91.56,121.73,95.2,118.79,97.64Zm18.52-56.57a14.57,14.57,0,0,1-1.14,5.75,15.35,15.35,0,0,1-3.08,4.68,14.71,14.71,0,0,1-4.53,3.18,13.28,13.28,0,0,1-3.36,1l-.18,0a3.62,3.62,0,0,1-.46.06l-.24,0-.44,0h-.21l-.65,0h-3.86V48.07H123a6.47,6.47,0,0,0,4-1.25,6.39,6.39,0,0,0,2.33-3.32,14.87,14.87,0,0,1-3,1.1,13.52,13.52,0,0,1-8.79-.78,14.75,14.75,0,0,1-4.54-3.18A15.31,15.31,0,0,1,109.87,36a14.33,14.33,0,0,1-1.15-5.75V15.48h7.51V30.2a6.94,6.94,0,0,0,1.93,5,6.39,6.39,0,0,0,4.86,2,6.56,6.56,0,0,0,2.61-.54,6.37,6.37,0,0,0,2.14-1.5,7.78,7.78,0,0,0,1.43-2.25,6.94,6.94,0,0,0,.53-2.72V15.48h7.58Z"/></svg>