<svg id="Layer_1" data-name="Layer 1" xmlns="http://www.w3.org/2000/svg" viewBox="0 0 17.97 13.21"><defs><style>.cls-1{fill:#2e4da0;}</style></defs><title>Correo</title><path class="cls-1" d="M16.9.13h0A1.74,1.74,0,0,0,16.26,0H1.72a1.66,1.66,0,0,0-.64.13h0A1.72,1.72,0,0,0,0,1.72v9.77a1.72,1.72,0,0,0,1.72,1.72H16.26A1.72,1.72,0,0,0,18,11.49V1.72A1.71,1.71,0,0,0,16.9.13ZM15.17,1.36,9.46,5.43a.83.83,0,0,1-1,0L2.81,1.36Zm1.09,10.49H1.72a.36.36,0,0,1-.36-.36V2L7.72,6.54a2.2,2.2,0,0,0,2.53,0L16.61,2v9.49A.36.36,0,0,1,16.26,11.85Z"/></svg>