<svg xmlns="http://www.w3.org/2000/svg" viewBox="0 0 13.96 23"><defs><style>.cls-1{fill:#460053;}</style></defs><title>emoti</title><g id="Layer_2" data-name="Layer 2"><circle class="cls-1" cx="6.82" cy="3.54" r="2.14"/><path class="cls-1" d="M13.79,1.38A.86.86,0,0,0,13.61.17.87.87,0,0,0,12.4.35l-4.47,6H5.62l-4.08-5A.87.87,0,0,0,.32,1.27.86.86,0,0,0,.2,2.49L4.52,7.75V13.5L2,21.66A1,1,0,0,0,2.73,23,1,1,0,0,0,4,22.26l2.31-7.6h.8l.75,7.41A1,1,0,0,0,10,21.86c-.9-8.92-.84-8.32-.86-8.4V7.69Z"/></g></svg>