<svg id="Layer_1" data-name="Layer 1" xmlns="http://www.w3.org/2000/svg" viewBox="0 0 113.44 76.9"><defs><style>.cls-1{fill:#e6e7e9;opacity:0.77;}.cls-2{fill:none;}.cls-3{fill:#62246b;}.cls-4{fill:#926d96;}</style></defs><title>estrellas</title><path class="cls-1" d="M38.56,58.1,30.7,52.22a3.48,3.48,0,0,0-4.16,0L12.75,62.55,16,46.73a3.47,3.47,0,0,0-1.19-3.36L3.05,33.67l17.5-2.06a3.48,3.48,0,0,0,2.83-2.19l5.24-13.63,5.24,13.63a3.47,3.47,0,0,0,2.83,2.19L48.45,33l-.8,2.08a.46.46,0,0,1-.38.29L27.63,37.69a3.42,3.42,0,0,0-1.78,6L39,54.6a.48.48,0,0,1,.16.45Z"/><path class="cls-1" d="M98.67,43.37a3.47,3.47,0,0,0-1.19,3.36l3.22,15.82L86.91,52.22a3.48,3.48,0,0,0-4.16,0L74.9,58.1l-.62-3.05a.44.44,0,0,1,.16-.45L87.59,43.71a3.42,3.42,0,0,0-1.78-6L66.18,35.37a.46.46,0,0,1-.38-.3L65,33l11.76-1.39a3.48,3.48,0,0,0,2.83-2.19l5.24-13.63,5.24,13.63a3.45,3.45,0,0,0,2.83,2.19l17.49,2.06Z"/><path class="cls-1" d="M59.06,61.89a3.92,3.92,0,0,0-2.33-.77,4,4,0,0,0-2.34.77L38.91,73.48l2-9.81.67-3.3,1-4.63A3.88,3.88,0,0,0,41.2,52L28,41.08l19.64-2.31.45-.08a3.91,3.91,0,0,0,2.64-2.18l.08-.21L52,33.41l1.13-2.94L56.72,21l3.64,9.47,1.13,2.93,1.12,2.89.09.22a3.87,3.87,0,0,0,2.62,2.16,3.4,3.4,0,0,0,.46.09l19.63,2.31L72.25,52a3.88,3.88,0,0,0-1.32,3.77l.94,4.63.67,3.3,2,9.81Z"/><path class="cls-2" d="M66.18,35.37l19.63,2.31a3.42,3.42,0,0,1,1.78,6L74.44,54.6a.44.44,0,0,0-.16.45l.62,3.05,7.85-5.88a3.48,3.48,0,0,1,4.16,0L100.7,62.55,97.48,46.73a3.47,3.47,0,0,1,1.19-3.36l11.72-9.7L92.9,31.61a3.45,3.45,0,0,1-2.83-2.19L84.83,15.79,79.59,29.42a3.48,3.48,0,0,1-2.83,2.19L65,33l.8,2.07A.46.46,0,0,0,66.18,35.37Z"/><path class="cls-2" d="M39,54.6,25.85,43.72a3.42,3.42,0,0,1,1.78-6l19.64-2.32a.46.46,0,0,0,.38-.29l.8-2.08L36.69,31.61a3.47,3.47,0,0,1-2.83-2.19L28.62,15.79,23.38,29.42a3.48,3.48,0,0,1-2.83,2.19L3.05,33.67l11.73,9.7A3.47,3.47,0,0,1,16,46.73L12.75,62.55,26.54,52.22a3.48,3.48,0,0,1,4.16,0l7.86,5.88.62-3.05A.48.48,0,0,0,39,54.6Z"/><path class="cls-3" d="M113.31,32.81a3.05,3.05,0,0,0-2.56-2.17l-17.5-2.05a.43.43,0,0,1-.34-.27L87.67,14.69a3,3,0,0,0-2.84-1.95h0A3.07,3.07,0,0,0,82,14.69L76.74,28.32a.4.4,0,0,1-.34.27L63.87,30.06l-4-10.28a3.41,3.41,0,0,0-3.19-2.19h0a3.42,3.42,0,0,0-3.19,2.19l-4,10.28L37.05,28.59a.43.43,0,0,1-.35-.27L31.46,14.69a3,3,0,0,0-2.84-1.95h0a3.07,3.07,0,0,0-2.85,1.95L20.53,28.32a.4.4,0,0,1-.34.27L2.69,30.65A3,3,0,0,0,1.11,36l11.73,9.7a.41.41,0,0,1,.14.4L9.76,61.94a3,3,0,0,0,1.36,3.18,3,3,0,0,0,1.63.47,3.05,3.05,0,0,0,1.82-.6l13.8-10.33a.4.4,0,0,1,.25-.08.43.43,0,0,1,.26.08l9,6.74L35.56,72.8a3.42,3.42,0,0,0,1.52,3.57A3.43,3.43,0,0,0,41,76.22L56.44,64.63a.46.46,0,0,1,.29-.09.44.44,0,0,1,.28.09L72.49,76.22a3.41,3.41,0,0,0,2.05.68,3.42,3.42,0,0,0,3.35-4.1L75.57,61.4l9-6.74a.43.43,0,0,1,.5,0L98.88,65a3.05,3.05,0,0,0,1.82.6,3,3,0,0,0,1.63-.47,3,3,0,0,0,1.36-3.18l-3.22-15.81a.42.42,0,0,1,.14-.41L112.33,36A3,3,0,0,0,113.31,32.81ZM38.56,58.1,30.7,52.22a3.48,3.48,0,0,0-4.16,0L12.75,62.55,16,46.73a3.47,3.47,0,0,0-1.19-3.36L3.05,33.67l17.5-2.06a3.48,3.48,0,0,0,2.83-2.19l5.24-13.63,5.24,13.63a3.47,3.47,0,0,0,2.83,2.19L48.45,33l-.8,2.08a.46.46,0,0,1-.38.29L27.63,37.69a3.42,3.42,0,0,0-1.78,6L39,54.6a.48.48,0,0,1,.16.45Zm20.5,3.79a3.92,3.92,0,0,0-2.33-.77,4,4,0,0,0-2.34.77L38.91,73.48l2-9.81.67-3.3,1-4.63A3.88,3.88,0,0,0,41.2,52L28,41.08l19.64-2.31.45-.08a3.91,3.91,0,0,0,2.64-2.18l.08-.21L52,33.41l1.13-2.94L56.72,21l3.64,9.47,1.13,2.93,1.12,2.89.09.22a3.87,3.87,0,0,0,2.62,2.16,3.4,3.4,0,0,0,.46.09l19.63,2.31L72.25,52a3.88,3.88,0,0,0-1.32,3.77l.94,4.63.67,3.3,2,9.81ZM98.67,43.37a3.47,3.47,0,0,0-1.19,3.36l3.22,15.82L86.91,52.22a3.48,3.48,0,0,0-4.16,0L74.9,58.1l-.62-3.05a.44.44,0,0,1,.16-.45L87.59,43.71a3.42,3.42,0,0,0-1.78-6L66.18,35.37a.46.46,0,0,1-.38-.3L65,33l11.76-1.39a3.48,3.48,0,0,0,2.83-2.19l5.24-13.63,5.24,13.63a3.45,3.45,0,0,0,2.83,2.19l17.49,2.06Z"/><path class="cls-4" d="M56.1,10.22a1.34,1.34,0,0,0,1.34-1.34V1.35a1.35,1.35,0,1,0-2.69,0V8.88A1.34,1.34,0,0,0,56.1,10.22Z"/><path class="cls-4" d="M38.14,12.88a1.34,1.34,0,0,0,1.16.67,1.31,1.31,0,0,0,.68-.18,1.34,1.34,0,0,0,.49-1.83L36.7,5a1.34,1.34,0,1,0-2.33,1.34Z"/><path class="cls-4" d="M72.22,13.37a1.25,1.25,0,0,0,.67.18,1.35,1.35,0,0,0,1.17-.67l3.76-6.52A1.34,1.34,0,1,0,75.49,5l-3.76,6.52A1.33,1.33,0,0,0,72.22,13.37Z"/></svg>