<svg id="Layer_1" data-name="Layer 1" xmlns="http://www.w3.org/2000/svg" viewBox="0 0 73.67 89.2"><defs><style>.cls-1{fill:#62246b;}.cls-2{fill:#926d96;}.cls-3{fill:#e6e7e9;opacity:0.77;}</style></defs><title>foco</title><path class="cls-1" d="M52.91,20.27a22.89,22.89,0,0,0-34.3,30.16,37.93,37.93,0,0,1,7.8,22.8v8.85a7.13,7.13,0,0,0,7.13,7.12h6.62a7.12,7.12,0,0,0,7.12-7.12V73.23a37.55,37.55,0,0,1,7.8-22.83,22.89,22.89,0,0,0-2.17-30.13Zm-.16,28.35a40.54,40.54,0,0,0-8.43,24.06H40V50.26a2.22,2.22,0,0,1,.66-1.59l4-4a.85.85,0,0,0-1.2-1.2l-4,4a3.92,3.92,0,0,0-1.16,2.79V72.68H35.39V50.26a4,4,0,0,0-1.15-2.79l-4-4a.85.85,0,0,0-1.2,1.2l4,4a2.27,2.27,0,0,1,.66,1.59V72.68H29.35a40.94,40.94,0,0,0-8.41-24,19.74,19.74,0,0,1-4.06-12.26A20.06,20.06,0,0,1,36.54,16.62a20,20,0,0,1,16.21,32Z"/><path class="cls-2" d="M36.83,11.15A1.46,1.46,0,0,0,38.3,9.69V1.47a1.47,1.47,0,1,0-2.93,0V9.69A1.46,1.46,0,0,0,36.83,11.15Z"/><path class="cls-2" d="M22,14.05a1.47,1.47,0,0,0,1.27.74,1.49,1.49,0,0,0,.73-.2,1.47,1.47,0,0,0,.54-2L20.42,5.47a1.47,1.47,0,1,0-2.54,1.47Z"/><path class="cls-2" d="M68.2,53.24h0l-7.12-4.1a1.47,1.47,0,0,0-1.47,2.54l7.12,4.11a1.47,1.47,0,0,0,.73.19,1.46,1.46,0,0,0,1.27-.73A1.47,1.47,0,0,0,68.2,53.24Z"/><path class="cls-2" d="M5.47,20.42l7.12,4.11a1.49,1.49,0,0,0,.73.2A1.47,1.47,0,0,0,14.05,22L6.94,17.88a1.47,1.47,0,1,0-1.47,2.54Z"/><path class="cls-2" d="M72.2,35.37H64a1.47,1.47,0,1,0,0,2.93H72.2a1.47,1.47,0,1,0,0-2.93Z"/><path class="cls-2" d="M11.15,36.83a1.46,1.46,0,0,0-1.46-1.46H1.47a1.47,1.47,0,1,0,0,2.93H9.69A1.46,1.46,0,0,0,11.15,36.83Z"/><path class="cls-2" d="M60.35,24.73a1.49,1.49,0,0,0,.73-.2l7.12-4.11a1.47,1.47,0,0,0-1.47-2.54L59.61,22a1.47,1.47,0,0,0,.74,2.74Z"/><path class="cls-2" d="M12.59,49.14l-7.12,4.1A1.47,1.47,0,0,0,6.21,56a1.5,1.5,0,0,0,.73-.19l7.11-4.11a1.46,1.46,0,1,0-1.46-2.54Z"/><path class="cls-2" d="M49.68,14.59a1.45,1.45,0,0,0,2-.54l4.11-7.11a1.47,1.47,0,0,0-2.55-1.47l-4.1,7.12A1.45,1.45,0,0,0,49.68,14.59Z"/><path class="cls-3" d="M52.75,48.62a40.54,40.54,0,0,0-8.43,24.06H40V50.26a2.22,2.22,0,0,1,.66-1.59l4-4a.85.85,0,0,0-1.2-1.2l-4,4a3.92,3.92,0,0,0-1.16,2.79V72.68H35.39V50.26a4,4,0,0,0-1.15-2.79l-4-4a.85.85,0,0,0-1.2,1.2l4,4a2.27,2.27,0,0,1,.66,1.59V72.68H29.35a40.94,40.94,0,0,0-8.41-24,19.74,19.74,0,0,1-4.06-12.26A20.06,20.06,0,0,1,36.54,16.62a20,20,0,0,1,16.21,32Z"/></svg>