<svg xmlns="http://www.w3.org/2000/svg" viewBox="0 0 79.95 31.27"><defs><style>.cls-1{fill:#fff;}</style></defs><title>cluby-text-logo</title><g id="Layer_2" data-name="Layer 2"><path class="cls-1" d="M2.52,9.87a8,8,0,0,1,2.84-2,9,9,0,0,1,3.31-.64,9,9,0,0,1,3.25.64,7.94,7.94,0,0,1,2.86,2l1.62,1.58L13.2,14.7l-1.62-1.59a4.09,4.09,0,0,0-2.91-1.19,4,4,0,0,0-2.95,1.24,3.74,3.74,0,0,0-.89,1.28,3.85,3.85,0,0,0-.3,1.49,4.49,4.49,0,0,0,.3,1.63,4,4,0,0,0,.89,1.36,4.12,4.12,0,0,0,4.49.94,3.66,3.66,0,0,0,1.32-.94L13.2,17.3l3.2,3.25-1.62,1.62a8.25,8.25,0,0,1-2.86,1.94,8.36,8.36,0,0,1-6.56,0,8.27,8.27,0,0,1-2.84-1.94,7.82,7.82,0,0,1-1.9-2.82A9.08,9.08,0,0,1,0,16a9.17,9.17,0,0,1,.62-3.25A8.2,8.2,0,0,1,2.52,9.87Z"/><path class="cls-1" d="M18.32,0h4.57V24.73H18.32Z"/><path class="cls-1" d="M42.24,7.69v8.5a8.32,8.32,0,0,1-.68,3.35,8.77,8.77,0,0,1-1.86,2.72A9,9,0,0,1,37,24.09a8.28,8.28,0,0,1-6.62,0,8.64,8.64,0,0,1-2.71-1.83,8.52,8.52,0,0,1-2.48-6.07V7.69h4.49v8.5a4,4,0,0,0,1.15,2.91,3.83,3.83,0,0,0,2.86,1.19,3.93,3.93,0,0,0,2.89-1.19,4,4,0,0,0,1.17-2.91V7.69Z"/><path class="cls-1" d="M53,7.18a8.24,8.24,0,0,1,3.31.68A8.45,8.45,0,0,1,59,9.74a9.08,9.08,0,0,1,1.84,2.8A8.59,8.59,0,0,1,61.54,16a8.62,8.62,0,0,1-.68,3.44A9,9,0,0,1,59,22.21a8.67,8.67,0,0,1-2.71,1.9,8.07,8.07,0,0,1-6.62,0A8.67,8.67,0,0,1,47,22.21a9.21,9.21,0,0,1-1.84-2.79A8.62,8.62,0,0,1,44.46,16V.64h4.48V7.18Zm0,12.94a4,4,0,0,0,1.56-.32,3.75,3.75,0,0,0,1.28-.88,4.31,4.31,0,0,0,.86-1.32A4.22,4.22,0,0,0,57,16a4.24,4.24,0,0,0-1.18-3,3.89,3.89,0,0,0-1.28-.88A4,4,0,0,0,53,11.83H48.94V16a4.07,4.07,0,0,0,1.16,2.94A3.83,3.83,0,0,0,53,20.12Z"/><path class="cls-1" d="M80,7.13v15.3a8.8,8.8,0,0,1-.68,3.44,9.21,9.21,0,0,1-1.84,2.79,8.69,8.69,0,0,1-2.71,1.91,7.93,7.93,0,0,1-3.31.7H69.1V26.61h2.31a3.91,3.91,0,0,0,2.37-.74,3.84,3.84,0,0,0,1.39-2,8.58,8.58,0,0,1-1.82.66,8,8,0,0,1-5.25-.47,8.67,8.67,0,0,1-2.71-1.9,9.08,9.08,0,0,1-1.84-2.8,8.59,8.59,0,0,1-.68-3.44V7.13h4.48v8.8a4.19,4.19,0,0,0,1.15,3,3.85,3.85,0,0,0,2.91,1.22A4,4,0,0,0,73,19.8a3.63,3.63,0,0,0,1.28-.9,4.31,4.31,0,0,0,.85-1.34,4.12,4.12,0,0,0,.32-1.63V7.13Z"/></g></svg>