<svg id="Layer_1" data-name="Layer 1" xmlns="http://www.w3.org/2000/svg" viewBox="0 0 69.02 69.02"><defs><style>.cls-1{fill:#e6e7e9;}.cls-1,.cls-4{opacity:0.77;}.cls-2{fill:#62246b;}.cls-3{fill:#926d96;}.cls-4{fill:#fff;}</style></defs><title>lupa</title><circle class="cls-1" cx="42.06" cy="26.96" r="22.8"/><path class="cls-2" d="M0,63.63A5.39,5.39,0,0,0,5.39,69a5.37,5.37,0,0,0,3.82-1.58l13-13h0l5-5a26.71,26.71,0,0,0,14.86,4.47,27,27,0,1,0-27-27,26.71,26.71,0,0,0,4.47,14.86l-18,18A5.35,5.35,0,0,0,0,63.63ZM64.86,27a22.8,22.8,0,1,1-22.8-22.8A22.83,22.83,0,0,1,64.86,27ZM17.37,47.84,21.19,44A27.44,27.44,0,0,0,25,47.83l-3.82,3.82A32.64,32.64,0,0,1,17.37,47.84Z"/><path class="cls-3" d="M42.5,10.88l-9.09,5.89a1.37,1.37,0,0,1-.7.19,1.41,1.41,0,0,1-.7-2.63l9.08-5.88a1.4,1.4,0,1,1,1.41,2.43Z"/><path class="cls-4" d="M17.37,47.84,21.19,44A27.44,27.44,0,0,0,25,47.83l-3.82,3.82A32.64,32.64,0,0,1,17.37,47.84Z"/></svg>