<svg xmlns="http://www.w3.org/2000/svg" viewBox="0 0 27.69 25.13"><defs><style>.cls-1{fill:#fff;}</style></defs><title>shop</title><g id="Layer_2" data-name="Layer 2"><path class="cls-1" d="M1,2.05H4L8.14,17.18a1,1,0,0,0,1,.75H22a1,1,0,0,0,.94-.62L27.61,6.56a1,1,0,0,0-.09-1,1,1,0,0,0-.85-.46H12.46a1,1,0,0,0,0,2.05H25.1l-3.79,8.71H9.9L5.72.75a1,1,0,0,0-1-.75H1A1,1,0,0,0,1,2.05Z"/><path class="cls-1" d="M8.16,25.13a2.32,2.32,0,1,0-2.32-2.32A2.32,2.32,0,0,0,8.16,25.13Z"/><path class="cls-1" d="M22.68,25.13h.17a2.29,2.29,0,0,0,1.58-.8,2.31,2.31,0,1,0-1.75.8Z"/></g></svg>